# xmcd CD database file
#
# Track frame offsets:
#	150
#	10118
#	22090
#	31933
#	42558
#	52190
#	63105
#	69528
#	83183
#	94653
#	106218
#	116940
#	128500
#	139213
#	150193
#	163550
#	178348
#	191755
#	205223
#	208908
#	221510
#	231673
#	243695
#
# Disc length: 3378 seconds
#
# Revision: 1
# Processed by: cddbd v1.5.2PL0 Copyright (c) Steve Scherf et al.
# Submitted via: CDex 1.51
#
DISCID=540d3017
DTITLE=The Meditation Singers - Good News
DYEAR=1992
DGENRE=Gospel
TTITLE0=My Soul Looks Back And Wonders [Take 3, Previously Unissued Alternate]
TTITLE1=Ain't That Good News [Take 15, Previously Unissued Alternate]
TTITLE2=You Don't Know How Blessed You Are [Take 8, Previously Unissued]
TTITLE3=He's All Right With Me [Previously Unissued]
TTITLE4=Remember Me [Previously Unissued]
TTITLE5=One River To Cross [Take 1, Previously Unissued]
TTITLE6=Now The Day Is Over
TTITLE7=Make A Step In The Right Direction [Take 8, Previously Unissued]
TTITLE8=The Day Is Past And Gone [Take 1, Previously Unissued]
TTITLE9=I'm Still Saying Yes [Take 1, Previously Unissued]
TTITLE10=I'm Determined To Run This Race
TTITLE11=Do You Know Jesus? [Take 1, Previously Unissued]
TTITLE12=Promise To Meet Me There
TTITLE13=Until I Reach My Heavenly Home [Take 1, Previously Unissued]
TTITLE14=He Made It All Right [Previously Unissued]
TTITLE15=Jesus Is Always There [Previously Unissued]
TTITLE16=Too Close To Heaven [Previously Unissued]
TTITLE17=God Is Good To Me [Previously Unissued]
TTITLE18=WDIA Radio Station Plug [Previously Unissued]
TTITLE19=Make A Step In The Right Direction [Take 1, Previously Unissued]
TTITLE20=You Don't Know How Blessed You Are [Take 6, Previously Unissued]
TTITLE21=Ain't That Good News
TTITLE22=My Soul Looks Back And Wonders
EXTD=YEAR: 1992
EXTT0=
EXTT1=
EXTT2=
EXTT3=
EXTT4=
EXTT5=
EXTT6=
EXTT7=
EXTT8=
EXTT9=
EXTT10=
EXTT11=
EXTT12=
EXTT13=
EXTT14=
EXTT15=
EXTT16=
EXTT17=
EXTT18=
EXTT19=
EXTT20=
EXTT21=
EXTT22=
PLAYORDER=
